<svg width="128" height="128" viewBox="0 0 128 128" fill="none" xmlns="http://www.w3.org/2000/svg">
<g filter="url(#filter0_d)">
<path fill-rule="evenodd" clip-rule="evenodd" d="M64 72C81.6731 72 96 57.6731 96 40C96 22.3269 81.6731 8 64 8C46.3269 8 32 22.3269 32 40C32 57.6731 46.3269 72 64 72Z" fill="white"/>
</g>
<path fill-rule="evenodd" clip-rule="evenodd" d="M65 37C65 38.1046 65.8954 39 67 39H72C72.5523 39 73 39.4477 73 40C73 40.5523 72.5523 41 72 41H67C65.8954 41 65 41.8954 65 43V48C65 48.5523 64.5523 49 64 49C63.4477 49 63 48.5523 63 48V43C63 41.8954 62.1046 41 61 41H56C55.4477 41 55 40.5523 55 40C55 39.4477 55.4477 39 56 39H61C62.1046 39 63 38.1046 63 37V32C63 31.4477 63.4477 31 64 31C64.5523 31 65 31.4477 65 32V37Z" fill="#006CFF"/>
<defs>
<filter id="filter0_d" x="0" y="0" width="128" height="128" filterUnits="userSpaceOnUse" color-interpolation-filters="sRGB">
<feFlood flood-opacity="0" result="BackgroundImageFix"/>
<feColorMatrix in="SourceAlpha" type="matrix" values="0 0 0 0 0 0 0 0 0 0 0 0 0 0 0 0 0 0 127 0"/>
<feOffset dy="24"/>
<feGaussianBlur stdDeviation="16"/>
<feColorMatrix type="matrix" values="0 0 0 0 0.0839038 0 0 0 0 0.138901 0 0 0 0 0.218341 0 0 0 0.16 0"/>
<feBlend mode="normal" in2="BackgroundImageFix" result="effect1_dropShadow"/>
<feBlend mode="normal" in="SourceGraphic" in2="effect1_dropShadow" result="shape"/>
</filter>
</defs>
</svg>
