<svg width="22" height="6" viewBox="0 0 22 6" fill="none" xmlns="http://www.w3.org/2000/svg">
<path fill-rule="evenodd" clip-rule="evenodd" d="M0.5 3C0.5 4.38071 1.61929 5.5 3 5.5C4.38071 5.5 5.5 4.38071 5.5 3C5.5 1.61929 4.38071 0.5 3 0.5C1.61929 0.5 0.5 1.61929 0.5 3ZM11 5.5C9.61929 5.5 8.5 4.38071 8.5 3C8.5 1.61929 9.61929 0.5 11 0.5C12.3807 0.5 13.5 1.61929 13.5 3C13.5 4.38071 12.3807 5.5 11 5.5ZM19 5.5C17.6193 5.5 16.5 4.38071 16.5 3C16.5 1.61929 17.6193 0.5 19 0.5C20.3807 0.5 21.5 1.61929 21.5 3C21.5 4.38071 20.3807 5.5 19 5.5Z" fill="#006CFF"/>
</svg>
